<svg class="hide" xmlns="http://www.w3.org/2000/svg">
    <defs>
        <g id="svg-top">
            <path fill-rule="evenodd" clip-rule="evenodd" d="M52.925,65.085c-1.074-0.675-2.28-1.012-3.615-1.012
		c-1.9,0-3.535,0.652-4.901,1.951c-1.37,1.307-2.053,3.484-2.053,6.537c0,2.44,0.654,4.364,1.97,5.769
		c1.312,1.411,2.96,2.113,4.942,2.113c2.018,0,3.68-0.715,4.987-2.131c1.301-1.42,1.952-3.434,1.952-6.044
		c0-1.647-0.279-3.092-0.836-4.319C54.813,66.718,54,65.765,52.925,65.085z"/>
            <path fill-rule="evenodd" clip-rule="evenodd" d="M72.801,64.692c-0.453-0.116-1.289-0.178-2.505-0.178h-5.183v7.245h5.238
		c1.733,0,2.964-0.326,3.691-0.968c0.729-0.646,1.092-1.553,1.092-2.726c0-0.848-0.216-1.571-0.643-2.18
		C74.063,65.285,73.499,64.887,72.801,64.692z"/>
            <path fill-rule="evenodd" clip-rule="evenodd" d="M50,0C22.386,0,0,22.386,0,50c0,27.614,22.386,50,50,50s50-22.386,50-50
		C100,22.386,77.614,0,50,0z M23.128,44.307l26.9-27.043l26.898,27.043v4.104L50.028,21.373l-26.9,27.038V44.307z M38.165,64.515
		h-6.706V82.39h-2.682V64.515H22.1V62.12h16.065V64.515z M57.73,77.8c-0.832,1.626-2.006,2.854-3.528,3.682
		c-1.519,0.836-3.159,1.256-4.922,1.256c-1.907,0-3.612-0.464-5.115-1.383c-1.501-0.923-2.64-2.179-3.415-3.777
		c-0.774-1.593-1.161-3.279-1.161-5.061c0-3.36,0.905-5.993,2.711-7.902c1.805-1.901,4.139-2.853,6.996-2.853
		c1.87,0,3.557,0.448,5.059,1.344c1.502,0.89,2.647,2.14,3.438,3.738c0.784,1.598,1.18,3.412,1.18,5.442
		C58.973,74.338,58.559,76.179,57.73,77.8z M76.257,72.358c-1.1,1.193-3.079,1.792-5.947,1.792h-5.196v8.239h-2.683V62.12h7.646
		c1.347,0,2.371,0.066,3.083,0.194c0.995,0.165,1.831,0.48,2.501,0.946c0.673,0.47,1.214,1.122,1.627,1.958
		c0.409,0.839,0.613,1.764,0.613,2.764C77.9,69.708,77.353,71.168,76.257,72.358z"/>
        </g>
        <g id="svg-close">
            <path fill-rule="evenodd" clip-rule="evenodd" fill="#999999" d="M12.031,0.032C5.42,0.032,0.062,5.39,0.062,12
		c0,6.609,5.358,11.968,11.969,11.968C18.641,23.969,24,18.609,24,12C24,5.39,18.641,0.032,12.031,0.032L12.031,0.032z
		 M17.814,16.336l-1.447,1.447l-4.336-4.336l-4.338,4.336l-1.446-1.447L10.583,12L6.247,7.663l1.445-1.446l4.338,4.337l4.337-4.337
		l1.447,1.446L13.477,12L17.814,16.336L17.814,16.336z"/>
        </g>
        <g id="svg-jd">
            <path fill="#C60C1B" d="M25.563,11.654c-1.323-1.158-3.346-1.749-6.004-1.749h-1.543v14.208h1.543c2.658,0,4.679-0.593,6.004-1.754
		c1.302-1.141,1.985-2.988,1.986-5.351C27.549,14.638,26.864,12.789,25.563,11.654z"/>
            <path fill="#C60C1B" d="M29,0H5C2.238,0,0,2.239,0,5v24c0,2.762,2.239,5,5,5h24c2.761,0,5-2.238,5-5V5C34,2.239,31.761,0,29,0z
		 M12.393,19.925c0,2.361-0.729,4.155-2.166,5.34c-1.407,1.156-3.678,1.748-6.576,1.748c-0.025,0-0.085,0.005-0.162,0H3.156v-2.904
		h0.349c0.999-0.008,1.854-0.094,2.537-0.261c0.698-0.172,1.305-0.439,1.801-0.805c0.409-0.312,0.707-0.721,0.877-1.209
		c0.182-0.514,0.274-1.443,0.274-2.763L8.996,6.987h3.396V19.925z M27.842,24.505c-1.981,1.667-4.907,2.515-8.67,2.515h-4.438V6.981
		h4.438c3.763,0,6.683,0.846,8.67,2.519c1.973,1.653,3.013,4.253,3.014,7.504C30.855,20.253,29.816,22.845,27.842,24.505z"/>
        </g>
        <g  id="svg-kl">
            <path fill-rule="evenodd" clip-rule="evenodd" fill="#E91B51" d="M16.923,31.758c-8.187,0-14.802-6.626-14.802-14.817
	c0-8.195,6.614-14.82,14.802-14.82c8.185,0,14.803,6.624,14.803,14.82C31.726,25.132,25.109,31.758,16.923,31.758L16.923,31.758z
	 M16.923,0C7.577,0,0,7.584,0,16.941C0,26.297,7.577,33.88,16.923,33.88c9.35,0,16.927-7.583,16.927-16.938
	C33.85,7.584,26.271,0,16.923,0L16.923,0z"/>
            <path fill-rule="evenodd" clip-rule="evenodd" fill="#E91B51" d="M21.667,18.29c-0.653,0-1.161-0.52-1.161-1.14
	c0-0.621,0.508-1.14,1.161-1.14c0.609,0,1.111,0.52,1.111,1.14C22.778,17.77,22.276,18.29,21.667,18.29L21.667,18.29z
	 M16.923,23.597c-1.166,0-2.324-0.606-2.172-1.828l0.255-2.128c0.102-0.934,0.754-1.766,1.716-1.871l0.201,0.007l0.206-0.007
	c0.956,0.106,1.612,0.938,1.709,1.871l0.259,2.128C19.247,22.988,18.093,23.597,16.923,23.597L16.923,23.597z M12.177,18.29
	c-0.606,0-1.111-0.52-1.111-1.14c0-0.621,0.502-1.14,1.111-1.14c0.656,0,1.163,0.52,1.163,1.14
	C13.341,17.77,12.834,18.29,12.177,18.29L12.177,18.29z M21.667,12.531c-1.309-1.089-2.976-1.717-4.744-1.717
	c-1.766,0-3.436,0.628-4.746,1.717c-2.219-3.116-8.229-2.18-8.229,2.75c0,2.596,2.072,4.671,4.544,4.671
	c0.151,0,0.304,0,0.458-0.051c0.201,5.346,4.088,6.077,7.976,6.077s7.775-0.731,7.979-6.077c0.151,0.051,0.305,0.051,0.459,0.051
	c2.471,0,4.541-2.076,4.541-4.671C29.898,10.351,23.89,9.414,21.667,12.531L21.667,12.531z"/>
        </g>
        <g id="svg-home">
            <path d="M50,0C22.386,0,0,22.385,0,50c0,27.613,22.386,50,50,50s50-22.387,50-50C100,22.385,77.614,0,50,0z M61.11,26.312h12.123
	v11.1c0,0.837-0.68,1.514-1.516,1.514c-0.837,0-1.515-0.677-1.515-1.514v-8.073H61.11c-0.835,0-1.515-0.677-1.515-1.514
	S60.275,26.312,61.11,26.312z M73.233,78.787H55.051V62.64H44.949v16.147H26.766V52.548c0-0.835,0.678-1.512,1.516-1.512
	c0.837,0,1.515,0.677,1.515,1.512v23.213h12.121V59.614h16.163v16.146h12.122V52.548c0-0.835,0.678-1.512,1.515-1.512
	c0.836,0,1.516,0.677,1.516,1.512V78.787z M81.327,52.574c-0.3,0.32-0.704,0.479-1.107,0.479c-0.372,0-0.741-0.134-1.034-0.407
	L49.999,25.356L20.813,52.563c-0.611,0.57-1.571,0.535-2.142-0.076c-0.571-0.609-0.537-1.566,0.075-2.137l31.254-29.138
	l31.255,29.223C81.867,51.006,81.898,51.964,81.327,52.574z"/>
        </g>
        <g id="svg-search">
            <path clip-path="url(#SVGID_2_)" fill-rule="evenodd" clip-rule="evenodd" fill="#CCCCCC" d="M20.349,23.142l-5.548-5.624
		c-0.582-0.582-0.578-1.531,0.006-2.115c0.585-0.586,1.533-0.588,2.115-0.006l5.548,5.624c0.583,0.582,0.58,1.529-0.006,2.115
		C21.88,23.72,20.931,23.724,20.349,23.142"/>
            <path clip-path="url(#SVGID_2_)" fill="#CCCCCC" d="M10,3c3.859,0,7,3.14,7,7c0,3.859-3.141,6.999-7,6.999c-3.859,0-7-3.14-7-6.999
		C3,6.14,6.141,3,10,3 M10,0C4.478,0,0,4.477,0,10c0,5.521,4.478,9.999,10,9.999c5.523,0,10-4.478,10-9.999C20,4.477,15.523,0,10,0"
            />
        </g>
        <g id="svg-taobao">
            <path fill-rule="evenodd" clip-rule="evenodd" fill="#FF4400" d="M5.859,3.491c1.681,0,3.037,1.291,3.037,2.875
		c0,1.58-1.36,2.872-3.037,2.872c-1.677,0-3.037-1.288-3.037-2.872C2.822,4.782,4.182,3.491,5.859,3.491L5.859,3.491z M8.397,20.742
		c-0.802,2.618-0.604,1.646-3.786,8.938L0,26.649c0,0,5.143-4.933,6.199-7.188c1.116-2.377-1.234-3.644-1.234-3.644l-3.532-2.321
		l1.908-3.098c2.664,2.085,2.866,2.259,4.661,4.159C9.392,16.023,9.216,18.066,8.397,20.742L8.397,20.742L8.397,20.742L8.397,20.742
		z"/>
            <path fill-rule="evenodd" clip-rule="evenodd" fill="#FF4400" d="M33.455,24.144c-0.897,8.892-11.87,5.589-11.87,5.589l0.594-2.544
		l2.13,0.578c4.7,0.316,3.829-4.017,3.829-4.017V11.158c0-4.778-3.85-5.272-11.57-2.363l2.004,0.24
		c-0.155,0.56-0.535,2.116-1.278,2.116h9.546v2.732h-5.185v2.732h5.185v1.371h-5.186v5.488c0-0.306,1.753-0.717,2.456-1.267
		l-0.476-2.015l2.757-0.895l2.28,5.878l-3.36,1.473l-0.594-2.343c-1.499,1.215-4.625,2.966-10.075,2.813
		c-5.826,0.156-4.331-7.302-4.331-7.302l0.148-0.46h4.093c-0.026,1.368-0.38,2.777,0.105,3.585c0.393,0.665,1.175,0.964,1.829,0.996
		c0.073,0.01-0.017,0.201-0.017,0.201v-6.153H9.989v-1.368h6.483v-2.732h-1.036c-1.337,1.368-2.555,2.739-2.555,2.739l-1.792-1.649
		c1.274-1.414,2.549-3.644,3.331-5.141c-0.663,0.285-1.321,0.578-1.974,0.881c-0.667,0.881-1.426,1.792-2.271,2.687
		c0.029,0.048-2.932-1.747-2.932-1.747C10.302,8.899,12.016,3,12.016,3l4.261,1.256c0,0-0.356,0.874-1.079,2.21
		c17.042-5.084,18.03,3.119,18.03,3.119S34.35,15.251,33.455,24.144L33.455,24.144L33.455,24.144z"/>
        </g>
        <g id="svg-tmall">
            <path fill="#C60A0A" d="M29.104,0h-24c-2.762,0-5,2.239-5,5v24c0,2.761,2.238,5,5,5h24c2.762,0,5-2.239,5-5V5
	C34.104,2.238,31.866,0,29.104,0z M29.271,11.5h-9.312v17.667h-4.5V11.5H4.938V7h24.333V11.5z"/>
        </g>
        <g id="svg-arrow-right">
            <line fill="none"  stroke-width="2" stroke-linecap="round" stroke-miterlimit="10" x1="1" y1="17" x2="17" y2="33"/>
            <line fill="none"  stroke-width="2" stroke-linecap="round" stroke-miterlimit="10" x1="17" y1="1" x2="1" y2="17"/>
        </g>
        <g id="svg-sort-arrow">
            <path d="M8.175,12.795c0.04-0.018,0.076-0.041,0.11-0.07l7.598-7.119c0.156-0.148,0.156-0.385,0-0.533l-1.207-1.132
		c-0.156-0.145-0.412-0.145-0.568,0L8,9.664L1.894,3.941c-0.157-0.145-0.412-0.145-0.568,0L0.118,5.073
		c-0.157,0.148-0.157,0.385,0,0.533l6.391,5.986l0,0l1.207,1.133c0.01,0.008,0.021,0.019,0.031,0.023
		C7.869,12.842,8.038,12.857,8.175,12.795L8.175,12.795z"/>
        </g>
        <g id="svg-top">
            <path fill-rule="evenodd" clip-rule="evenodd" d="M52.925,65.085c-1.074-0.675-2.28-1.012-3.615-1.012
		c-1.9,0-3.535,0.652-4.901,1.951c-1.37,1.307-2.053,3.484-2.053,6.537c0,2.44,0.654,4.364,1.97,5.769
		c1.312,1.411,2.96,2.113,4.942,2.113c2.018,0,3.68-0.715,4.987-2.131c1.301-1.42,1.952-3.434,1.952-6.044
		c0-1.647-0.279-3.092-0.836-4.319C54.813,66.718,54,65.765,52.925,65.085z"/>
            <path fill-rule="evenodd" clip-rule="evenodd" d="M72.801,64.692c-0.453-0.116-1.289-0.178-2.505-0.178h-5.183v7.245h5.238
		c1.733,0,2.964-0.326,3.691-0.968c0.729-0.646,1.092-1.553,1.092-2.726c0-0.848-0.216-1.571-0.643-2.18
		C74.063,65.285,73.499,64.887,72.801,64.692z"/>
            <path fill-rule="evenodd" clip-rule="evenodd" d="M50,0C22.386,0,0,22.386,0,50c0,27.614,22.386,50,50,50s50-22.386,50-50
		C100,22.386,77.614,0,50,0z M23.128,44.307l26.9-27.043l26.898,27.043v4.104L50.028,21.373l-26.9,27.038V44.307z M38.165,64.515
		h-6.706V82.39h-2.682V64.515H22.1V62.12h16.065V64.515z M57.73,77.8c-0.832,1.626-2.006,2.854-3.528,3.682
		c-1.519,0.836-3.159,1.256-4.922,1.256c-1.907,0-3.612-0.464-5.115-1.383c-1.501-0.923-2.64-2.179-3.415-3.777
		c-0.774-1.593-1.161-3.279-1.161-5.061c0-3.36,0.905-5.993,2.711-7.902c1.805-1.901,4.139-2.853,6.996-2.853
		c1.87,0,3.557,0.448,5.059,1.344c1.502,0.89,2.647,2.14,3.438,3.738c0.784,1.598,1.18,3.412,1.18,5.442
		C58.973,74.338,58.559,76.179,57.73,77.8z M76.257,72.358c-1.1,1.193-3.079,1.792-5.947,1.792h-5.196v8.239h-2.683V62.12h7.646
		c1.347,0,2.371,0.066,3.083,0.194c0.995,0.165,1.831,0.48,2.501,0.946c0.673,0.47,1.214,1.122,1.627,1.958
		c0.409,0.839,0.613,1.764,0.613,2.764C77.9,69.708,77.353,71.168,76.257,72.358z"/>
        </g>
        <g id="svg-double-arrow">
            <polygon fill="#999999" points="6.352,5.758 6,5.41 5.336,6.065 5.336,6.066 0.078,11.268 0.741,11.922 6,6.721 11.259,11.922
		11.922,11.268 6.663,6.065 	"/>
            <polygon fill="#999999" points="6,1.391 11.259,6.59 11.922,5.934 6.663,0.734 6.352,0.426 6,0.078 5.336,0.734 5.336,0.734
		0.078,5.934 0.741,6.59 	"/>
        </g>
        <g id="svg-sales">
            <polygon points="11.984,10.664 11.984,0.646 6,0.646 6,10.664 2.148,10.664 8.987,17.555 15.854,10.664 "/>
        </g>
        <g id="svg-triangle">
            <polyline points="9.014,0.997 15.851,7.888 2.148,7.888 "/>
        </g>
        <g id="svg-next">
            <path fill-rule="evenodd" clip-rule="evenodd" fill="#fff" d="M13.348,13.188L3.028,23.508c-0.657,0.656-1.721,0.656-2.377,0
		s-0.656-1.721,0-2.377L9.782,12L0.651,2.87c-0.656-0.657-0.656-1.721,0-2.377s1.721-0.656,2.377,0l10.319,10.319
		C13.676,11.14,13.84,11.57,13.84,12C13.84,12.431,13.676,12.86,13.348,13.188L13.348,13.188z"/>
        </g>
        <g id="svg-home-mini">
            <path fill-rule="evenodd" clip-rule="evenodd" fill="#999" d="M20,2h-8c-0.552,0-1,0.448-1,1s0.448,1,1,1h3v2.775c0,0.553,0.447,1,1,1
	s1-0.447,1-1V4h3c0.553,0,1-0.448,1-1S20.553,2,20,2z"/>
            <path fill-rule="evenodd" clip-rule="evenodd" fill="#999" d="M16,6.083c-6.628,0-12,5.373-12,12.001c0,6.626,5.372,11.999,12,11.999
	c6.627,0,12-5.373,12-11.999C28,11.456,22.627,6.083,16,6.083z M16,28.083c-5.522,0-10-4.479-10-9.999
	C6,12.56,10.478,8.083,16,8.083s10,4.477,10,10.001C26,23.604,21.522,28.083,16,28.083z"/>
            <circle fill-rule="evenodd" clip-rule="evenodd" fill="#999" cx="16" cy="18.084" r="2"/>
            <path fill-rule="evenodd" clip-rule="evenodd" fill="#999" d="M16.443,17.505c0.243,0.243,0.637,0.243,0.879,0l3.568-3.626
	c0.242-0.242,0.242-0.636,0-0.879l0,0c-0.243-0.242-0.637-0.242-0.879,0l-3.568,3.626C16.201,16.869,16.201,17.263,16.443,17.505
	L16.443,17.505z"/>
        </g>
        <g id="svg-close-dialog">
            <path fill-rule="evenodd" clip-rule="evenodd" fill="#fff" d="M39.697,37.961l9.957-9.906c0.472-0.469,0.474-1.229,0.005-1.699
		c-0.47-0.473-1.228-0.473-1.698-0.006l-9.96,9.908l-9.873-9.904c-0.468-0.469-1.229-0.471-1.699-0.002
		c-0.47,0.469-0.471,1.229-0.002,1.699l9.871,9.902l-9.953,9.9c-0.471,0.467-0.473,1.227-0.005,1.697
		c0.234,0.236,0.543,0.355,0.852,0.355c0.307,0,0.613-0.117,0.848-0.35l9.955-9.902l9.964,9.992C48.191,49.883,48.499,50,48.808,50
		c0.308,0,0.614-0.117,0.849-0.35c0.47-0.469,0.471-1.229,0.002-1.699L39.697,37.961L39.697,37.961z"/>
        </g>
    </defs>
</svg>